<?xml version="1.0" standalone="no"?>
<!DOCTYPE svg PUBLIC "-//W3C//DTD SVG 20010904//EN"
 "http://www.w3.org/TR/2001/REC-SVG-20010904/DTD/svg10.dtd">
<svg version="1.0" xmlns="http://www.w3.org/2000/svg"
 width="592.000000pt" height="592.000000pt" viewBox="0 0 592.000000 592.000000"
 preserveAspectRatio="xMidYMid meet">
<metadata>
Created by potrace 1.14, written by Peter Selinger 2001-2017
</metadata>
<g transform="translate(0.000000,592.000000) scale(0.100000,-0.100000)"
fill="#000000" stroke="none">
<path d="M550 5912 c-36 -1 -75 -5 -88 -7 -28 -7 -57 -66 -78 -163 -64 -299
-86 -450 -110 -757 -4 -54 -4 -394 0 -475 6 -115 22 -269 40 -385 2 -11 9 -56
15 -100 7 -44 14 -89 16 -100 1 -11 -6 -34 -16 -51 -29 -48 -52 -115 -64 -189
-3 -16 -7 -41 -10 -55 -32 -180 -45 -460 -30 -678 3 -57 8 -112 10 -124 3 -11
7 -46 10 -77 4 -31 8 -67 10 -80 3 -13 7 -45 11 -70 4 -25 9 -55 11 -66 3 -11
11 -49 18 -85 22 -104 24 -111 29 -128 3 -9 7 -28 10 -42 2 -14 9 -37 15 -52
6 -16 8 -28 6 -28 -13 0 83 -251 143 -375 67 -138 214 -375 233 -375 4 0 10
-9 14 -19 8 -26 166 -182 225 -222 40 -27 48 -38 48 -63 -1 -22 8 -38 36 -63
37 -34 37 -35 19 -56 -10 -12 -21 -24 -24 -27 -14 -12 -118 -190 -112 -190 5
0 3 -4 -2 -8 -18 -12 -64 -125 -86 -209 -29 -108 -29 -278 0 -387 12 -43 26
-85 33 -93 35 -43 163 -46 279 -8 74 24 254 118 360 187 138 90 257 197 343
306 27 34 52 62 56 62 6 0 61 -10 125 -23 47 -10 224 -36 285 -42 195 -19 555
-26 729 -13 l65 4 91 -90 c50 -50 118 -115 150 -144 33 -29 69 -61 80 -71 116
-103 358 -217 525 -246 8 -1 31 -5 50 -9 122 -21 241 -24 274 -7 44 24 77 118
71 209 -7 116 -105 356 -195 477 -52 70 -82 104 -167 192 -35 35 -63 65 -63
67 0 2 24 16 54 30 100 49 221 153 337 291 19 22 39 45 44 51 6 6 28 32 50 59
43 51 105 126 135 162 10 12 46 57 81 100 34 43 65 80 70 81 5 2 9 10 9 18 0
8 4 14 10 14 5 0 12 11 16 24 5 23 31 36 79 41 61 6 394 106 480 145 125 55
300 155 342 196 31 30 53 82 53 127 0 80 -50 116 -185 131 -27 3 -59 8 -71 10
-12 2 -45 7 -75 11 -76 8 -121 15 -149 20 -13 2 -44 7 -69 10 -25 3 -57 7 -71
10 -14 3 -46 8 -72 12 -26 3 -45 9 -42 14 10 17 35 165 41 249 29 359 -14 747
-112 1020 -15 41 -29 82 -32 90 -2 9 12 50 31 92 20 41 36 80 36 86 0 6 5 23
12 39 13 34 13 30 32 120 9 40 19 99 23 130 15 111 7 610 -11 733 -7 45 -19
157 -30 270 -4 38 -16 125 -22 153 -13 60 -44 179 -51 197 -3 8 -7 20 -9 25
-1 6 -7 23 -13 38 -10 26 -14 28 -58 23 -27 -3 -93 -8 -148 -11 -109 -7 -154
-11 -200 -19 -16 -3 -50 -8 -75 -11 -24 -4 -47 -8 -51 -10 -3 -2 -20 -7 -37
-10 -68 -12 -252 -78 -357 -129 -126 -60 -278 -160 -375 -247 -37 -32 -71 -59
-76 -58 -5 0 -24 32 -43 71 -30 62 -73 135 -106 176 -22 28 -124 128 -145 142
-12 8 -30 22 -40 30 -10 9 -42 27 -72 40 -29 14 -55 27 -58 30 -4 5 -110 40
-135 46 -5 1 -26 5 -45 9 -57 12 -293 15 -340 4 -25 -6 -52 -12 -60 -14 -40
-8 -106 -28 -115 -34 -5 -4 -28 -13 -49 -20 -22 -8 -44 -18 -50 -23 -6 -4 -32
-22 -59 -39 -46 -30 -120 -100 -219 -207 l-47 -51 -28 22 c-15 12 -30 24 -33
27 -3 3 -12 10 -21 15 -9 6 -36 23 -60 39 -98 65 -406 212 -484 231 -5 1 -17
5 -25 8 -27 12 -254 75 -290 81 -19 3 -53 9 -75 12 -22 3 -46 7 -54 10 -7 2
-57 7 -110 10 -53 3 -98 7 -101 7 -3 1 -34 1 -70 -1z"/>
</g>
</svg>
